<svg xmlns="http://www.w3.org/2000/svg" viewBox="0 0 24 24" role="img" aria-label="Withdrawals">
  <rect width="24" height="24" fill="#00a3ff" rx="12" />
  <g fill="#fff" clip-path="url(#withdrawals-icon-clip)">
    <path
      clip-rule="evenodd"
      fill-rule="evenodd"
      d="M13 18.584l.79-.8a1.004 1.004 0 011.42 1.42l-2.5 2.5a.999.999 0 01-.33.21 1 1 0 01-.76 0 1 1 0 01-.33-.21l-2.5-2.5a1 1 0 010-1.42 1 1 0 011.42 0l.79.8v-4.59a1 1 0 012 0v4.59zm-6.016-1.886A1.018 1.018 0 016 16.434a8.46 8.46 0 1112 0 1.018 1.018 0 11-1.44-1.44 6.45 6.45 0 10-9.12 0 1.018 1.018 0 01-.456 1.704z"
    />
  </g>
  <defs>
    <clipPath id="withdrawals-icon-clip">
      <path d="M0 0h24v24H0z" />
    </clipPath>
  </defs>
</svg>
